<svg width="14" height="12" viewBox="0 0 14 12" fill="none" xmlns="http://www.w3.org/2000/svg">
<path d="M2.20909 0H12.6091L13.9091 2.66667V11.3333C13.9091 11.5101 13.8406 11.6797 13.7187 11.8047C13.5968 11.9298 13.4315 12 13.2591 12H1.55909C1.3867 12 1.22137 11.9298 1.09947 11.8047C0.97757 11.6797 0.909088 11.5101 0.909088 11.3333V2.66933L2.20909 0ZM12.6091 4H2.20909V10.6667H12.6091V4ZM12.4557 2.66667L11.8057 1.33333H3.01314L2.36314 2.66667H12.4557ZM8.05909 7.33333H10.0091L7.40909 10L4.80909 7.33333H6.75909V4.66667H8.05909V7.33333Z" fill="#4F4F4F"/>
</svg>
