<svg width="15" height="14" viewBox="0 0 15 14" fill="none" xmlns="http://www.w3.org/2000/svg">
<path d="M7.45453 12.6C10.5345 12.6 13.0545 10.08 13.0545 7C13.0545 3.92 10.5345 1.4 7.45453 1.4C4.37453 1.4 1.85453 3.92 1.85453 7C1.85453 10.08 4.37453 12.6 7.45453 12.6ZM7.45453 0C11.3045 0 14.4545 3.15 14.4545 7C14.4545 10.85 11.3045 14 7.45453 14C3.60453 14 0.454529 10.85 0.454529 7C0.454529 3.15 3.60453 0 7.45453 0ZM10.9545 8.33L10.4645 9.24L6.75453 7.21V3.5H7.80453V6.58L10.9545 8.33Z" fill="#4F4F4F"/>
</svg>
