<svg width="16" height="14" viewBox="0 0 16 14" fill="none" xmlns="http://www.w3.org/2000/svg">
<path d="M7.16475 14C6.22157 14 5.33521 13.8161 4.50566 13.4484C3.67612 13.0811 2.95453 12.5825 2.34089 11.9525C1.72725 11.3225 1.2443 10.5817 0.892026 9.73C0.539753 8.87833 0.363617 7.96833 0.363617 7C0.363617 6.03167 0.542708 5.12167 0.90089 4.27C1.25862 3.41833 1.7443 2.6775 2.35794 2.0475C2.97157 1.4175 3.69316 0.918633 4.52271 0.5509C5.35225 0.183633 6.23862 0 7.1818 0C7.72725 0 8.26998 0.07 8.80998 0.21C9.34953 0.35 9.87498 0.554167 10.3863 0.8225C10.5568 0.915833 10.662 1.05863 10.702 1.2509C10.7416 1.44363 10.6988 1.62167 10.5738 1.785C10.4602 1.93667 10.3125 2.03583 10.1307 2.0825C9.94884 2.12917 9.77839 2.10583 9.6193 2.0125C9.23293 1.81417 8.83521 1.6625 8.42612 1.5575C8.01703 1.4525 7.60225 1.4 7.1818 1.4C5.67043 1.4 4.38362 1.9453 3.32134 3.0359C2.25862 4.12697 1.72725 5.44833 1.72725 7C1.72725 8.55167 2.25862 9.87303 3.32134 10.9641C4.38362 12.0547 5.67043 12.6 7.1818 12.6C7.51134 12.6 7.82384 12.5736 8.1193 12.5209C8.41475 12.4686 8.69884 12.39 8.97157 12.285C9.1193 12.2267 9.2643 12.2239 9.40657 12.2766C9.54839 12.3289 9.67612 12.4192 9.78975 12.5475C9.93748 12.7225 9.98021 12.918 9.91794 13.1341C9.85521 13.3497 9.71021 13.5042 9.48293 13.5975C9.13066 13.7258 8.76134 13.825 8.37498 13.895C7.98862 13.965 7.58521 14 7.16475 14ZM5.74998 9.73L3.78975 7.7175C3.66475 7.58917 3.60521 7.42863 3.61112 7.2359C3.61657 7.04363 3.6818 6.88333 3.8068 6.755C3.9318 6.62667 4.09089 6.5625 4.28407 6.5625C4.47725 6.5625 4.63634 6.62667 4.76134 6.755L6.22725 8.26L12.5852 1.715C12.7102 1.58667 12.8666 1.5253 13.0543 1.5309C13.2416 1.53697 13.3977 1.60417 13.5227 1.7325C13.6477 1.86083 13.7102 2.02417 13.7102 2.2225C13.7102 2.42083 13.6477 2.58417 13.5227 2.7125L6.70453 9.73C6.57953 9.85833 6.42044 9.9225 6.22725 9.9225C6.03407 9.9225 5.87498 9.85833 5.74998 9.73ZM12.6363 12.6C12.4432 12.6 12.2813 12.5328 12.1509 12.3984C12.02 12.2645 11.9545 12.0983 11.9545 11.9V10.5H10.5909C10.3977 10.5 10.2359 10.4328 10.1054 10.2984C9.97453 10.1645 9.90907 9.99833 9.90907 9.8C9.90907 9.60167 9.97453 9.4353 10.1054 9.3009C10.2359 9.16697 10.3977 9.1 10.5909 9.1H11.9545V7.7C11.9545 7.50167 12.02 7.3353 12.1509 7.2009C12.2813 7.06697 12.4432 7 12.6363 7C12.8295 7 12.9913 7.06697 13.1218 7.2009C13.2527 7.3353 13.3182 7.50167 13.3182 7.7V9.1H14.6818C14.875 9.1 15.0368 9.16697 15.1673 9.3009C15.2982 9.4353 15.3636 9.60167 15.3636 9.8C15.3636 9.99833 15.2982 10.1645 15.1673 10.2984C15.0368 10.4328 14.875 10.5 14.6818 10.5H13.3182V11.9C13.3182 12.0983 13.2527 12.2645 13.1218 12.3984C12.9913 12.5328 12.8295 12.6 12.6363 12.6Z" fill="#4F4F4F"/>
</svg>
