<svg width="18" height="12" viewBox="0 0 18 12" fill="none" xmlns="http://www.w3.org/2000/svg">
<path fill-rule="evenodd" clip-rule="evenodd" d="M12.5786 8.31424C12.1881 7.92371 12.1881 7.29055 12.5786 6.90002L15.0858 4.39284L12.5786 1.88567C12.1881 1.49514 12.1881 0.861976 12.5786 0.471452C12.9691 0.0809273 13.6023 0.0809273 13.9928 0.471452L17.2071 3.68574C17.5976 4.07626 17.5976 4.70943 17.2071 5.09995L13.9928 8.31424C13.6023 8.70476 12.9691 8.70476 12.5786 8.31424Z" fill="#4F4F4F"/>
<path fill-rule="evenodd" clip-rule="evenodd" d="M1.50005 11.8215C0.947763 11.8215 0.500048 11.3737 0.500048 10.8215V9.81699C0.500048 6.35596 3.25157 3.39288 6.75273 3.39288H15.4286C15.9809 3.39288 16.4286 3.8406 16.4286 4.39288C16.4286 4.94517 15.9809 5.39288 15.4286 5.39288H6.75273C4.43035 5.39288 2.50005 7.38483 2.50005 9.81699V10.8215C2.50005 11.3737 2.05233 11.8215 1.50005 11.8215Z" fill="#4F4F4F"/>
</svg>
