<svg width="27" height="20" viewBox="0 0 27 20" fill="none" xmlns="http://www.w3.org/2000/svg">
<path d="M6.13638 19.9669V9.7006L2.90113 6.78783L0 5.17145V18.1552C0 19.1576 0.825293 19.9669 1.84096 19.9669H6.13638Z" fill="#4285F4"/>
<path d="M20.8636 19.9669H25.1591C26.1778 19.9669 27 19.1546 27 18.1552V5.17157L23.714 7.02295L20.8636 9.70062V19.9669Z" fill="#34A853"/>
<path d="M6.13633 9.7006L5.69611 5.68927L6.13633 1.85004L13.4999 7.28511L20.8636 1.85004L21.3561 5.482L20.8636 9.7006L13.4999 15.1357L6.13633 9.7006Z" fill="#EA4335"/>
<path d="M20.8636 1.85001V9.70058L27 5.17142V2.75582C27 0.515429 24.4013 -0.761757 22.5819 0.581857L20.8636 1.85001Z" fill="#FBBC04"/>
<path d="M0 5.17135L2.82224 7.25449L6.13638 9.70051V1.84994L4.41808 0.581782C2.59559 -0.761935 0 0.515354 0 2.75565V5.17124V5.17135Z" fill="#C5221F"/>
</svg>
