<svg width="18" height="18" viewBox="0 0 18 18" fill="none" xmlns="http://www.w3.org/2000/svg">
<path d="M8.0735 14.049H9.7565V12.366H8.0735V14.049ZM8.915 0.584991C4.26992 0.584991 0.5 4.35491 0.5 8.99999C0.5 13.6451 4.26992 17.415 8.915 17.415C13.5601 17.415 17.33 13.6451 17.33 8.99999C17.33 4.35491 13.5601 0.584991 8.915 0.584991ZM8.915 15.732C5.20399 15.732 2.183 12.711 2.183 8.99999C2.183 5.28898 5.20399 2.26799 8.915 2.26799C12.626 2.26799 15.647 5.28898 15.647 8.99999C15.647 12.711 12.626 15.732 8.915 15.732ZM8.915 3.95099C7.05528 3.95099 5.549 5.45728 5.549 7.31699H7.232C7.232 6.39134 7.98935 5.63399 8.915 5.63399C9.84065 5.63399 10.598 6.39134 10.598 7.31699C10.598 8.99999 8.0735 8.78962 8.0735 11.5245H9.7565C9.7565 9.63112 12.281 9.42074 12.281 7.31699C12.281 5.45728 10.7747 3.95099 8.915 3.95099Z" fill="#64676C"/>
</svg>
