<svg width="3" height="12" viewBox="0 0 3 12" fill="none" xmlns="http://www.w3.org/2000/svg">
<path d="M1.50003 2.4C2.32846 2.4 3.00003 1.86274 3.00003 1.2C3.00003 0.537258 2.32846 0 1.50003 0C0.671603 0 3.05176e-05 0.537258 3.05176e-05 1.2C3.05176e-05 1.86274 0.671603 2.4 1.50003 2.4Z" fill="black"/>
<path d="M1.50003 7.19999C2.32846 7.19999 3.00003 6.66273 3.00003 5.99999C3.00003 5.33725 2.32846 4.79999 1.50003 4.79999C0.671603 4.79999 3.05176e-05 5.33725 3.05176e-05 5.99999C3.05176e-05 6.66273 0.671603 7.19999 1.50003 7.19999Z" fill="black"/>
<path d="M1.50003 12C2.32846 12 3.00003 11.4627 3.00003 10.8C3.00003 10.1373 2.32846 9.60001 1.50003 9.60001C0.671603 9.60001 3.05176e-05 10.1373 3.05176e-05 10.8C3.05176e-05 11.4627 0.671603 12 1.50003 12Z" fill="black"/>
</svg>
