<svg width="15" height="16" viewBox="0 0 15 16" fill="none" xmlns="http://www.w3.org/2000/svg">
<path fill-rule="evenodd" clip-rule="evenodd" d="M0.115234 2.31537C0.115234 3.25723 0.878761 4.02075 1.82062 4.02075C2.76248 4.02075 3.526 3.25723 3.526 2.31537C3.526 1.37351 2.76248 0.609985 1.82062 0.609985C0.878761 0.609985 0.115234 1.37351 0.115234 2.31537ZM0.115234 7.99999C0.115234 8.94184 0.878761 9.70537 1.82062 9.70537C2.76248 9.70537 3.526 8.94184 3.526 7.99999C3.526 7.05813 2.76248 6.2946 1.82062 6.2946C0.878761 6.2946 0.115234 7.05813 0.115234 7.99999ZM3.526 13.6846C3.526 14.6265 2.76248 15.39 1.82062 15.39C0.878761 15.39 0.115234 14.6265 0.115234 13.6846C0.115234 12.7427 0.878761 11.9792 1.82062 11.9792C2.76248 11.9792 3.526 12.7427 3.526 13.6846ZM5.79995 13.6846C5.79995 14.6265 6.56348 15.39 7.50533 15.39C8.44719 15.39 9.21072 14.6265 9.21072 13.6846C9.21072 12.7427 8.44719 11.9792 7.50533 11.9792C6.56348 11.9792 5.79995 12.7427 5.79995 13.6846ZM14.8952 7.99999C14.8952 8.94184 14.1317 9.70537 13.1898 9.70537C12.248 9.70537 11.4844 8.94184 11.4844 7.99999C11.4844 7.05813 12.248 6.2946 13.1898 6.2946C14.1317 6.2946 14.8952 7.05813 14.8952 7.99999ZM5.79995 7.99999C5.79995 8.94184 6.56348 9.70537 7.50533 9.70537C8.44719 9.70537 9.21072 8.94184 9.21072 7.99999C9.21072 7.05813 8.44719 6.2946 7.50533 6.2946C6.56348 6.2946 5.79995 7.05813 5.79995 7.99999ZM14.8952 13.6846C14.8952 14.6265 14.1317 15.39 13.1898 15.39C12.248 15.39 11.4844 14.6265 11.4844 13.6846C11.4844 12.7427 12.248 11.9792 13.1898 11.9792C14.1317 11.9792 14.8952 12.7427 14.8952 13.6846ZM13.1898 0.609985C12.248 0.609985 11.4844 1.37351 11.4844 2.31537C11.4844 3.25723 12.248 4.02075 13.1898 4.02075C14.1317 4.02075 14.8952 3.25723 14.8952 2.31537C14.8952 1.37351 14.1317 0.609985 13.1898 0.609985ZM9.21072 2.31537C9.21072 3.25723 8.44719 4.02075 7.50533 4.02075C6.56348 4.02075 5.79995 3.25723 5.79995 2.31537C5.79995 1.37351 6.56348 0.609985 7.50533 0.609985C8.44719 0.609985 9.21072 1.37351 9.21072 2.31537Z" fill="#4F4F4F"/>
</svg>
