<svg width="14" height="13" viewBox="0 0 14 13" fill="none" xmlns="http://www.w3.org/2000/svg">
<path fill-rule="evenodd" clip-rule="evenodd" d="M2.73267 0H10.9304V2.73259H2.73267V0ZM2.04944 3.41573H11.6135C12.7475 3.41573 13.663 4.33115 13.663 5.46518V9.56406H10.9304V12.2967H2.73259V9.56406H0V5.46518C0 4.33115 0.915418 3.41573 2.04944 3.41573ZM4.0988 10.9304H9.56398V7.51463H4.0988V10.9304ZM11.6134 6.14836C11.2377 6.14836 10.9303 5.84095 10.9303 5.46521C10.9303 5.08948 11.2377 4.78207 11.6134 4.78207C11.9891 4.78207 12.2966 5.08948 12.2966 5.46521C12.2966 5.84095 11.9891 6.14836 11.6134 6.14836Z" fill="#64676C"/>
</svg>
