<svg width="18" height="12" viewBox="0 0 18 12" fill="none" xmlns="http://www.w3.org/2000/svg">
<path fill-rule="evenodd" clip-rule="evenodd" d="M5.42142 8.31424C5.81195 7.92371 5.81195 7.29055 5.42142 6.90002L2.91424 4.39284L5.42142 1.88567C5.81195 1.49514 5.81195 0.861976 5.42142 0.471452C5.0309 0.0809273 4.39773 0.0809273 4.00721 0.471452L0.792924 3.68574C0.402399 4.07626 0.402399 4.70943 0.792924 5.09995L4.00721 8.31424C4.39773 8.70476 5.0309 8.70476 5.42142 8.31424Z" fill="#4F4F4F"/>
<path fill-rule="evenodd" clip-rule="evenodd" d="M16.5 11.8215C17.0522 11.8215 17.5 11.3737 17.5 10.8215V9.81699C17.5 6.35596 14.7484 3.39288 11.2473 3.39288H2.57138C2.0191 3.39288 1.57138 3.8406 1.57138 4.39288C1.57138 4.94517 2.0191 5.39288 2.57138 5.39288H11.2473C13.5697 5.39288 15.5 7.38483 15.5 9.81699V10.8215C15.5 11.3737 15.9477 11.8215 16.5 11.8215Z" fill="#4F4F4F"/>
</svg>
