<svg width="15" height="14" viewBox="0 0 15 14" fill="none" xmlns="http://www.w3.org/2000/svg">
<path d="M7.81818 2.8C8.00383 2.8 8.18188 2.87375 8.31315 3.00503C8.44443 3.1363 8.51818 3.31435 8.51818 3.5V7.7C8.51818 7.88565 8.44443 8.0637 8.31315 8.19497C8.18188 8.32625 8.00383 8.4 7.81818 8.4C7.63252 8.4 7.45448 8.32625 7.3232 8.19497C7.19193 8.0637 7.11818 7.88565 7.11818 7.7V3.5C7.11818 3.31435 7.19193 3.1363 7.3232 3.00503C7.45448 2.87375 7.63252 2.8 7.81818 2.8ZM7.81818 9.8C7.63252 9.8 7.45448 9.87375 7.3232 10.005C7.19193 10.1363 7.11818 10.3143 7.11818 10.5C7.11818 10.6857 7.19193 10.8637 7.3232 10.995C7.45448 11.1263 7.63252 11.2 7.81818 11.2C8.00383 11.2 8.18188 11.1263 8.31315 10.995C8.44443 10.8637 8.51818 10.6857 8.51818 10.5C8.51818 10.3143 8.44443 10.1363 8.31315 10.005C8.18188 9.87375 8.00383 9.8 7.81818 9.8Z" fill="#4F4F4F"/>
<path fill-rule="evenodd" clip-rule="evenodd" d="M7.81818 0C3.95208 0 0.818176 3.1339 0.818176 7C0.818176 10.8661 3.95208 14 7.81818 14C11.6843 14 14.8182 10.8661 14.8182 7C14.8182 3.1339 11.6843 0 7.81818 0ZM2.21818 7C2.21818 8.48521 2.80817 9.90959 3.85838 10.9598C4.90858 12.01 6.33296 12.6 7.81818 12.6C9.30339 12.6 10.7278 12.01 11.778 10.9598C12.8282 9.90959 13.4182 8.48521 13.4182 7C13.4182 5.51479 12.8282 4.09041 11.778 3.0402C10.7278 1.99 9.30339 1.4 7.81818 1.4C6.33296 1.4 4.90858 1.99 3.85838 3.0402C2.80817 4.09041 2.21818 5.51479 2.21818 7Z" fill="#4F4F4F"/>
</svg>
