<svg width="17" height="16" viewBox="0 0 17 16" fill="none" xmlns="http://www.w3.org/2000/svg">
<path fill-rule="evenodd" clip-rule="evenodd" d="M10.9373 10.0099H11.6414L16.089 14.4665L14.761 15.7945L10.3044 11.3469V10.6428L10.0638 10.3932C9.04767 11.2667 7.72853 11.7925 6.29352 11.7925C3.09371 11.7925 0.5 9.19883 0.5 5.99903C0.5 2.79922 3.09371 0.205505 6.29352 0.205505C9.49333 0.205505 12.087 2.79922 12.087 5.99903C12.087 7.43404 11.5612 8.75318 10.6877 9.76927L10.9373 10.0099ZM2.28263 5.99904C2.28263 8.2184 4.07417 10.0099 6.29353 10.0099C8.5129 10.0099 10.3044 8.2184 10.3044 5.99904C10.3044 3.77968 8.5129 1.98814 6.29353 1.98814C4.07417 1.98814 2.28263 3.77968 2.28263 5.99904Z" fill="#64676C"/>
</svg>
