<svg width="19" height="20" viewBox="0 0 19 20" fill="none" xmlns="http://www.w3.org/2000/svg">
<path d="M1.95667 7.49852C2.31216 6.40751 2.8952 5.4044 3.66723 4.5555C3.73115 4.48541 3.81438 4.43579 3.90644 4.41289C3.9985 4.39 4.09528 4.39485 4.18459 4.42684L6.02651 5.08235C6.15735 5.12873 6.29668 5.14623 6.43493 5.13365C6.57318 5.12107 6.70706 5.07871 6.82738 5.00948C6.9477 4.94025 7.05161 4.84579 7.13195 4.73258C7.2123 4.61938 7.26719 4.49013 7.29284 4.3537L7.64497 2.43593C7.66215 2.34272 7.70656 2.25669 7.77261 2.18871C7.83867 2.12073 7.92338 2.07386 8.01606 2.054C9.1412 1.81533 10.3039 1.81533 11.429 2.054C11.6187 2.09464 11.7649 2.24497 11.8001 2.43593L12.1523 4.3537C12.1775 4.49035 12.2321 4.61989 12.3124 4.73334C12.3926 4.84679 12.4965 4.94145 12.617 5.01075C12.7374 5.08006 12.8715 5.12235 13.0099 5.13471C13.1483 5.14708 13.2878 5.12921 13.4186 5.08235L15.2605 4.42684C15.3498 4.39485 15.4466 4.39 15.5387 4.41289C15.6307 4.43579 15.714 4.48541 15.7779 4.5555C16.5485 5.40468 17.1322 6.40691 17.4871 7.49852C17.5164 7.58872 17.5181 7.68562 17.4921 7.77681C17.466 7.86801 17.4133 7.94936 17.3408 8.01046L15.8483 9.27137C15.7421 9.36074 15.6566 9.47227 15.598 9.59814C15.5394 9.72401 15.5091 9.86117 15.5091 10C15.5091 10.1389 15.5394 10.276 15.598 10.4019C15.6566 10.5278 15.7421 10.6393 15.8483 10.7287L17.3408 11.9896C17.4898 12.1155 17.5467 12.3173 17.4871 12.5015C17.132 13.5924 16.5495 14.5955 15.7779 15.4445C15.714 15.5146 15.6307 15.5642 15.5387 15.5871C15.4466 15.61 15.3498 15.6052 15.2605 15.5732L13.4186 14.9177C13.2878 14.8713 13.1484 14.8538 13.0102 14.8664C12.8719 14.8789 12.738 14.9213 12.6177 14.9905C12.4974 15.0598 12.3935 15.1542 12.3132 15.2674C12.2328 15.3806 12.1779 15.5099 12.1523 15.6463L11.8001 17.5641C11.783 17.6576 11.7385 17.7438 11.6721 17.8118C11.6058 17.8799 11.5207 17.9266 11.4277 17.946C10.303 18.1847 9.14075 18.1847 8.01606 17.946C7.92313 17.9264 7.83812 17.8796 7.77181 17.8116C7.70551 17.7436 7.66089 17.6575 7.64362 17.5641L7.29284 15.6463C7.26761 15.5097 7.21299 15.3801 7.13274 15.2667C7.0525 15.1532 6.94856 15.0586 6.82811 14.9893C6.70767 14.92 6.5736 14.8777 6.43519 14.8653C6.29678 14.8529 6.15733 14.8708 6.02651 14.9177L4.18459 15.5732C4.09528 15.6052 3.9985 15.61 3.90644 15.5871C3.81438 15.5642 3.73115 15.5146 3.66723 15.4445C2.89568 14.5955 2.31311 13.5924 1.95803 12.5015C1.92872 12.4113 1.92698 12.3144 1.95304 12.2232C1.97909 12.132 2.03176 12.0507 2.1043 11.9896L3.5968 10.7287C3.70285 10.6392 3.78808 10.5276 3.84655 10.4017C3.90501 10.2759 3.9353 10.1388 3.9353 10C3.9353 9.86124 3.90501 9.72415 3.84655 9.59829C3.78808 9.47244 3.70285 9.36087 3.5968 9.27137L2.1043 8.01046C2.03176 7.94936 1.97909 7.86801 1.95304 7.77681C1.92698 7.68562 1.92872 7.58872 1.95803 7.49852H1.95667ZM7.35107 10C7.35107 10.6286 7.60078 11.2315 8.04527 11.6759C8.48975 12.1204 9.0926 12.3701 9.7212 12.3701C10.3498 12.3701 10.9526 12.1204 11.3971 11.6759C11.8416 11.2315 12.0913 10.6286 12.0913 10C12.0913 9.37142 11.8416 8.76857 11.3971 8.32408C10.9526 7.8796 10.3498 7.62989 9.7212 7.62989C9.0926 7.62989 8.48975 7.8796 8.04527 8.32408C7.60078 8.76857 7.35107 9.37142 7.35107 10Z" stroke="#4F4F4F" stroke-width="2"/>
<circle cx="9.11056" cy="9.89514" r="1.61056" fill="#4F4F4F" stroke="#4F4F4F"/>
</svg>
