<svg width="14" height="14" viewBox="0 0 14 14" fill="none" xmlns="http://www.w3.org/2000/svg">
<path d="M5.78282 11.2C5.97437 11.2 6.15806 11.1263 6.29351 10.995C6.42895 10.8637 6.50504 10.6857 6.50504 10.5V6.3C6.50504 6.11435 6.42895 5.9363 6.29351 5.80503C6.15806 5.67375 5.97437 5.6 5.78282 5.6C5.59127 5.6 5.40757 5.67375 5.27213 5.80503C5.13669 5.9363 5.0606 6.11435 5.0606 6.3V10.5C5.0606 10.6857 5.13669 10.8637 5.27213 10.995C5.40757 11.1263 5.59127 11.2 5.78282 11.2ZM13.005 2.8H10.1162V2.1C10.1162 1.54305 9.88788 1.0089 9.48155 0.615076C9.07522 0.221249 8.52412 0 7.94949 0H6.50504C5.93041 0 5.37931 0.221249 4.97298 0.615076C4.56665 1.0089 4.33838 1.54305 4.33838 2.1V2.8H1.44949C1.25794 2.8 1.07424 2.87375 0.938798 3.00503C0.803355 3.1363 0.727264 3.31435 0.727264 3.5C0.727264 3.68565 0.803355 3.8637 0.938798 3.99497C1.07424 4.12625 1.25794 4.2 1.44949 4.2H2.17171V11.9C2.17171 12.457 2.39998 12.9911 2.80631 13.3849C3.21264 13.7788 3.76374 14 4.33838 14H10.1162C10.6908 14 11.2419 13.7788 11.6482 13.3849C12.0545 12.9911 12.2828 12.457 12.2828 11.9V4.2H13.005C13.1966 4.2 13.3803 4.12625 13.5157 3.99497C13.6512 3.8637 13.7273 3.68565 13.7273 3.5C13.7273 3.31435 13.6512 3.1363 13.5157 3.00503C13.3803 2.87375 13.1966 2.8 13.005 2.8ZM5.78282 2.1C5.78282 1.91435 5.85891 1.7363 5.99435 1.60503C6.1298 1.47375 6.3135 1.4 6.50504 1.4H7.94949C8.14103 1.4 8.32473 1.47375 8.46017 1.60503C8.59562 1.7363 8.67171 1.91435 8.67171 2.1V2.8H5.78282V2.1ZM10.8384 11.9C10.8384 12.0857 10.7623 12.2637 10.6268 12.395C10.4914 12.5263 10.3077 12.6 10.1162 12.6H4.33838C4.14683 12.6 3.96313 12.5263 3.82769 12.395C3.69224 12.2637 3.61615 12.0857 3.61615 11.9V4.2H10.8384V11.9ZM8.67171 11.2C8.86325 11.2 9.04695 11.1263 9.1824 10.995C9.31784 10.8637 9.39393 10.6857 9.39393 10.5V6.3C9.39393 6.11435 9.31784 5.9363 9.1824 5.80503C9.04695 5.67375 8.86325 5.6 8.67171 5.6C8.48016 5.6 8.29646 5.67375 8.16102 5.80503C8.02558 5.9363 7.94949 6.11435 7.94949 6.3V10.5C7.94949 10.6857 8.02558 10.8637 8.16102 10.995C8.29646 11.1263 8.48016 11.2 8.67171 11.2Z" fill="#4F4F4F"/>
</svg>
