<svg width="18" height="12" viewBox="0 0 18 12" fill="none" xmlns="http://www.w3.org/2000/svg">
<path d="M12.3776 12H1.5562C1.16817 11.9981 0.796575 11.847 0.522191 11.5795C0.247807 11.312 0.0928071 10.9497 0.0908813 10.5714V1.42857C0.0928071 1.05027 0.247807 0.687997 0.522191 0.420493C0.796575 0.15299 1.16817 0.00187763 1.5562 1.63178e-07H12.3776C12.6194 -0.000112219 12.8575 0.0578258 13.0709 0.168698C13.2843 0.279569 13.4664 0.439963 13.6011 0.635715L16.942 5.52143C17.0391 5.66178 17.0909 5.82718 17.0909 5.99643C17.0909 6.16568 17.0391 6.33107 16.942 6.47143L13.6011 11.3643C13.4664 11.56 13.2843 11.7204 13.0709 11.8313C12.8575 11.9422 12.6194 12.0001 12.3776 12ZM1.84926 10.2857H12.2237L15.1544 6L12.2237 1.71429H1.84926V10.2857Z" fill="#4F4F4F"/>
</svg>
